<svg xmlns="http://www.w3.org/2000/svg" style="display:none">
<symbol id="icon-grid" viewBox="0 0 24 24"><rect x="3" y="3" width="7" height="7" rx="1"/><rect x="14" y="3" width="7" height="7" rx="1"/><rect x="3" y="14" width="7" height="7" rx="1"/><rect x="14" y="14" width="7" height="7" rx="1"/></symbol>
<symbol id="icon-chat" viewBox="0 0 24 24"><path d="M21 15a2 2 0 0 1-2 2H7l-4 4V5a2 2 0 0 1 2-2h14a2 2 0 0 1 2 2z"/></symbol>
<symbol id="icon-settings" viewBox="0 0 24 24"><path d="M12 15.5A3.5 3.5 0 1 0 12 8.5a3.5 3.5 0 0 0 0 7z"/></symbol>
<symbol id="icon-help" viewBox="0 0 24 24"><circle cx="12" cy="12" r="10"/><path d="M9.09 9a3 3 0 1 1 5.82 1c0 1-1 1.5-1.5 1.9"/></symbol>
<symbol id="icon-logout" viewBox="0 0 24 24"><path d="M16 17l5-5-5-5"/><path d="M21 12H9"/></symbol>
</svg>